<?xml version="1.0" encoding="UTF-8" standalone="no"?>
<!-- Created with Inkscape (http://www.inkscape.org/) -->

<svg
   version="1.1"
   id="svg1"
   width="1800"
   height="244.29443"
   viewBox="0 0 1800 244.29443"
   sodipodi:docname="b25-chrome-logo.svg"
   xml:space="preserve"
   inkscape:version="1.3.2 (091e20e, 2023-11-25)"
   inkscape:export-filename="b25-cowgirl2.png"
   inkscape:export-xdpi="96"
   inkscape:export-ydpi="96"
   xmlns:inkscape="http://www.inkscape.org/namespaces/inkscape"
   xmlns:sodipodi="http://sodipodi.sourceforge.net/DTD/sodipodi-0.dtd"
   xmlns:xlink="http://www.w3.org/1999/xlink"
   xmlns="http://www.w3.org/2000/svg"
   xmlns:svg="http://www.w3.org/2000/svg"><defs
     id="defs1"><linearGradient
       id="linearGradient45"
       inkscape:label="Chrome Text"><stop
         style="stop-color:#02e9fd;stop-opacity:1;"
         offset="0"
         id="stop42" /><stop
         style="stop-color:#086371;stop-opacity:1;"
         offset="0.43975648"
         id="stop43" /><stop
         style="stop-color:#d2e4e8;stop-opacity:1;"
         offset="0.46531701"
         id="stop44" /><stop
         style="stop-color:#3d7088;stop-opacity:1;"
         offset="1"
         id="stop45" /></linearGradient><linearGradient
       id="linearGradient41"
       inkscape:label="Stroke Gradient"><stop
         style="stop-color:#ffffff;stop-opacity:1;"
         offset="0"
         id="stop38" /><stop
         style="stop-color:#000000;stop-opacity:0.97254902;"
         offset="0.44015762"
         id="stop39" /><stop
         style="stop-color:#ffffff;stop-opacity:1;"
         offset="0.51708627"
         id="stop40" /><stop
         style="stop-color:#000000;stop-opacity:1;"
         offset="1"
         id="stop41" /></linearGradient><linearGradient
       inkscape:collect="always"
       xlink:href="#linearGradient45"
       id="linearGradient12"
       gradientUnits="userSpaceOnUse"
       gradientTransform="matrix(14.68459,0,0,14.68459,-151.35343,-920.0645)"
       x1="110.51196"
       y1="64.943916"
       x2="110.51196"
       y2="77.665138" /><filter
       style="color-interpolation-filters:sRGB"
       inkscape:label="Drop Shadow"
       id="filter45"
       x="-0.0056587264"
       y="-0.052443379"
       width="1.0113946"
       height="1.1144397"><feFlood
         result="flood1"
         flood-color="rgb(32,72,129)"
         flood-opacity="1"
         id="feFlood45" /><feBlend
         result="blend1"
         in="flood1"
         in2="SourceGraphic"
         mode="color"
         id="feBlend45" /><feComposite
         operator="in"
         in="blend1"
         in2="SourceGraphic"
         id="feComposite45"
         result="fbSourceGraphic" /><feColorMatrix
         result="fbSourceGraphicAlpha"
         in="fbSourceGraphic"
         values="0 0 0 -1 0 0 0 0 -1 0 0 0 0 -1 0 0 0 0 1 0"
         id="feColorMatrix24" /><feFlood
         id="feFlood24"
         result="flood1"
         flood-color="rgb(30,86,96)"
         flood-opacity="1"
         in="fbSourceGraphic" /><feBlend
         id="feBlend24"
         result="blend1"
         in="flood1"
         in2="fbSourceGraphic"
         mode="color" /><feComposite
         id="feComposite25"
         operator="in"
         in="blend1"
         in2="fbSourceGraphic"
         result="fbSourceGraphic" /><feColorMatrix
         result="fbSourceGraphicAlpha"
         in="fbSourceGraphic"
         values="0 0 0 -1 0 0 0 0 -1 0 0 0 0 -1 0 0 0 0 1 0"
         id="feColorMatrix25" /><feFlood
         id="feFlood25"
         result="flood"
         in="fbSourceGraphic"
         flood-opacity="1.000000"
         flood-color="rgb(0,0,0)" /><feGaussianBlur
         id="feGaussianBlur25"
         result="blur"
         in="fbSourceGraphic"
         stdDeviation="0.000000" /><feOffset
         id="feOffset25"
         result="offset"
         in="blur"
         dx="0.300000"
         dy="0.300000" /><feComposite
         id="feComposite26"
         result="comp1"
         operator="in"
         in="flood"
         in2="offset" /><feComposite
         id="feComposite27"
         result="comp2"
         operator="over"
         in="fbSourceGraphic"
         in2="comp1" /></filter></defs><sodipodi:namedview
     id="namedview1"
     pagecolor="#505050"
     bordercolor="#eeeeee"
     borderopacity="1"
     inkscape:showpageshadow="0"
     inkscape:pageopacity="0"
     inkscape:pagecheckerboard="0"
     inkscape:deskcolor="#d1d1d1"
     inkscape:zoom="0.85620452"
     inkscape:cx="924.42867"
     inkscape:cy="413.45262"
     inkscape:window-width="1800"
     inkscape:window-height="1043"
     inkscape:window-x="0"
     inkscape:window-y="44"
     inkscape:window-maximized="1"
     inkscape:current-layer="svg1"
     showguides="true"><sodipodi:guide
       position="1794.172,1273.7068"
       orientation="1,0"
       id="guide5"
       inkscape:locked="false" /><sodipodi:guide
       position="192.21867,1188.7161"
       orientation="1,0"
       id="guide12"
       inkscape:locked="false" /><sodipodi:guide
       position="700.46307,1273.7068"
       orientation="1,0"
       id="guide13"
       inkscape:locked="false" /><sodipodi:guide
       position="108.32057,1103.7254"
       orientation="1,0"
       id="guide14"
       inkscape:locked="false" /></sodipodi:namedview><path
     style="font-size:16.9333px;line-height:23.7068px;font-family:'Fast Hand';-inkscape-font-specification:'Fast Hand';letter-spacing:0px;word-spacing:1.06627px;display:inline;fill:url(#linearGradient12);stroke:#000000;stroke-width:11.6559;stroke-linecap:square;stroke-opacity:1;paint-order:stroke markers fill"
     d="m 38.142575,86.859367 -28.047,-48.56619 H 125.44017 c 36.4246,0 54.6369,18.21242 54.6369,54.63695 0,12.141513 -2.0236,22.259493 -6.0709,30.353783 4.0473,8.09444 6.0709,18.21241 6.0709,30.35393 0,36.42454 -18.2123,54.6368 -54.6369,54.6368 h -17.1196 L 80.152275,159.70859 h 45.287895 c 4.0471,0 6.0708,-2.02368 6.0708,-6.07075 0,-4.04722 -2.0237,-6.07075 -6.0708,-6.07075 H 73.231575 l -28.0469,-48.566203 h 80.255495 c 4.0471,0 6.0708,-2.02354 6.0708,-6.07076 0,-4.04721 -2.0237,-6.07076 -6.0708,-6.07076 z M 192.21867,123.28391 c 0,-56.660493 28.3302,-84.990733 84.9907,-84.990733 56.6604,0 84.9906,28.33024 84.9906,84.990733 0,56.66048 -28.3302,84.99073 -84.9906,84.99073 -56.6605,0 -84.9907,-28.33025 -84.9907,-84.99073 z m 84.9907,-36.424543 c -24.2831,0 -36.4247,12.14152 -36.4247,36.424543 0,24.28318 12.1416,36.42468 36.4247,36.42468 24.2829,0 36.4245,-12.1415 36.4245,-36.42468 0,-24.283023 -12.1416,-36.424543 -36.4245,-36.424543 z m 94.0968,36.424543 c 0,-56.660493 28.3302,-84.990733 84.9907,-84.990733 56.6604,0 84.9907,28.33024 84.9907,84.990733 0,56.66048 -28.3303,84.99073 -84.9907,84.99073 -56.6605,0 -84.9907,-28.33025 -84.9907,-84.99073 z m 84.9907,-36.424543 c -24.2831,0 -36.4246,12.14152 -36.4246,36.424543 0,24.28318 12.1415,36.42468 36.4246,36.42468 24.2831,0 36.4246,-12.1415 36.4246,-36.42468 0,-24.283023 -12.1415,-36.424543 -36.4246,-36.424543 z m 177.3879,0 V 196.13313 l -48.5662,24.28302 V 86.859367 h -38.7315 l -28.047,-48.56619 h 182.123 l -28.0469,48.56619 z m 70.6635,121.415273 -28.0469,-48.56605 h 115.3445 c 4.0473,0 6.0708,-2.02368 6.0708,-6.07075 0,-4.04722 -2.0235,-6.07075 -6.0708,-6.07075 h -48.566 c -36.4246,0 -54.637,-18.21242 -54.637,-54.636963 0,-36.42453 18.2124,-54.63695 54.637,-54.63695 h 115.3445 l -28.047,48.56619 h -87.2975 c -4.0473,0 -6.0708,2.02355 -6.0708,6.07076 0,4.04722 2.0235,6.07076 6.0708,6.07076 h 48.566 c 36.4246,0 54.6369,18.212273 54.6369,54.636953 0,36.42454 -18.2123,54.6368 -54.6369,54.6368 z M 919.13197,86.859367 V 210.5816 l -48.5662,24.28302 V 86.859367 h -38.7314 l -28.0469,-48.56619 h 182.1229 l -21.0049,48.56619 z m 45.7735,0 -28.047,-48.56619 h 115.34463 c 36.4246,0 54.6369,18.21242 54.6369,54.63695 0,23.473613 -7.5682,39.379073 -22.7046,47.716253 l 39.0956,67.62826 h -55.9723 l -35.0891,-60.70755 h -34.60333 v 48.56604 l -48.5662,24.28302 V 99.000887 h 103.20303 c 4.0473,0 6.0708,-2.02354 6.0708,-6.07076 0,-4.04721 -2.0235,-6.07076 -6.0708,-6.07076 z m 276.46263,72.849223 -29.5038,-50.99443 -57.551,99.56048 h -55.9723 l 113.5233,-196.571293 84.505,148.005103 v 48.56619 h -132.0998 l 28.0468,-48.56605 z m 70.9066,-72.849223 -28.0469,-48.56619 h 115.3445 c 36.4247,0 54.637,18.21242 54.637,54.63695 0,36.424543 -18.2123,54.636963 -54.637,54.636963 h -54.6368 v 48.56604 l -48.5662,24.28302 V 99.000887 h 103.203 c 4.0472,0 6.0709,-2.02354 6.0709,-6.07076 0,-4.04721 -2.0237,-6.07076 -6.0709,-6.07076 z m 311.916,72.849223 v 48.56605 h -157.8399 v -54.6368 c 0,-36.42468 18.2122,-54.636953 54.6369,-54.636953 h 48.5661 c 4.0472,0 6.0709,-2.02354 6.0709,-6.07076 0,-4.04721 -2.0237,-6.07076 -6.0709,-6.07076 h -103.203 v -48.56619 h 103.203 c 36.4246,0 54.6369,18.21242 54.6369,54.63695 0,36.424543 -18.2123,54.636963 -54.6369,54.636963 h -48.5661 c -4.0472,0 -6.0708,2.02353 -6.0708,6.07075 v 6.07075 z M 1794.172,38.293177 v 48.56619 h -109.2738 v 12.14152 h 54.637 c 36.4246,0 54.6368,18.212273 54.6368,54.636953 0,36.42454 -18.2122,54.6368 -54.6368,54.6368 h -103.203 v -48.56605 h 103.203 c 4.0472,0 6.0708,-2.02368 6.0708,-6.07075 0,-4.04722 -2.0236,-6.07075 -6.0708,-6.07075 h -103.203 V 38.293177 Z"
     id="path37"
     inkscape:label="fast hand flat"
     aria-label="BOOTSTRAP25"
     sodipodi:nodetypes="ccsscssccsssccssscsssssssssssssssssssscccccccccccssssssccssssssccccccccccccssccccccccssscccccccccccccsssccccsssccccsssssccsssssccccccsssccsssccc"
     inkscape:export-filename="b25-chrome-logo.png"
     inkscape:export-xdpi="109.22667"
     inkscape:export-ydpi="109.22667" /></svg>
